Coordinates
version=1
nRows=10
nColumns=63
inDegrees=yes

Units are S.I. units (second, meters, Newtons, ...)
If the header above contains a line with 'inDegrees', this indicates whether rotational values are in degrees (yes) or radians (no).

endheader
time	pelvis_tilt	pelvis_list	pelvis_rotation	pelvis_tx	pelvis_ty	pelvis_tz	hip_flexion_r	hip_adduction_r	hip_rotation_r	knee_angle_r	knee_angle_r_beta	ankle_angle_r	subtalar_angle_r	mtp_angle_r	hip_flexion_l	hip_adduction_l	hip_rotation_l	knee_angle_l	knee_angle_l_beta	ankle_angle_l	subtalar_angle_l	mtp_angle_l	L5_S1_Flex_Ext	L5_S1_Lat_Bending	L5_S1_axial_rotation	L4_L5_Flex_Ext	L4_L5_Lat_Bending	L4_L5_axial_rotation	L3_L4_Flex_Ext	L3_L4_Lat_Bending	L3_L4_axial_rotation	L2_L3_Flex_Ext	L2_L3_Lat_Bending	L2_L3_axial_rotation	L1_L2_Flex_Ext	L1_L2_Lat_Bending	L1_L2_axial_rotation	L1_T12_Flex_Ext	L1_T12_Lat_Bending	L1_T12_axial_rotation	Abs_r3	Abs_r2	Abs_r1	Abs_t1	Abs_t2	neck_flexion	neck_bending	neck_rotation	arm_flex_r	arm_add_r	arm_rot_r	elbow_flex_r	pro_sup_r	wrist_flex_r	wrist_dev_r	arm_flex_l	arm_add_l	arm_rot_l	elbow_flex_l	pro_sup_l	wrist_flex_l	wrist_dev_l
      1.37288136	      3.23455983	      1.00547983	     85.29917939	      0.33791851	      1.06102291	      0.39986348	     -6.61966124	     -2.62217826	     16.07692886	      2.34178272	      0.04087182	     24.24734947	    -10.31627856	      0.00000000	     -8.08546027	      1.67696751	      3.49915651	      0.68877954	      0.01202147	     24.67312560	    -13.66060557	      0.00000000	     -0.02811032	     -0.04176763	      0.57953276	     -0.05220367	     -0.05555095	      0.61575356	     -0.04618244	     -0.10155382	      0.61575356	     -0.03212728	     -0.10155382	      0.50709117	     -0.02610324	     -0.08517255	      0.47087037	     -0.01606223	     -0.06469806	      0.43464957	     -0.20078918	     -0.47248380	      3.22318737	      0.00000000	      0.00000000	     25.96207433	      6.16324297	     -0.28569090	    144.70161890	    -41.84125578	     74.49401070	     85.98842912	     83.55436242	    -33.79745242	      5.02687042	    125.90465111	    -41.86585452	     44.56766993	     94.81941457	     85.80164405	    -11.62989915	     14.61353433
      1.38983051	      3.28066409	      0.78967616	     85.28798708	      0.33777437	      1.06087072	      0.39959765	     -6.42378892	     -2.59667347	     16.18796900	      2.25535530	      0.03936338	     24.15387608	    -10.30782653	      0.00000000	     -7.89068315	      1.62691339	      3.39402021	      0.68776291	      0.01200373	     24.53901261	    -13.77063739	      0.00000000	     -0.01767713	     -0.02838987	      0.55302212	     -0.03282820	     -0.03775852	      0.58758600	     -0.02904175	     -0.06902712	      0.58758600	     -0.02020319	     -0.06902712	      0.48389436	     -0.01641498	     -0.05789261	      0.44933047	     -0.01010071	     -0.04397590	      0.41476659	     -0.12626596	     -0.32115184	      3.07574313	      0.00000000	      0.00000000	     26.54781512	      5.81957175	      0.01651462	    144.57094328	    -42.78120458	     73.65145619	     87.13561543	     83.54330452	    -33.32216273	      5.40792161	    126.03824280	    -42.65963526	     44.48118502	     95.70615926	     85.92545698	    -11.27417717	     14.45771744
      1.40677966	      3.24070872	      0.70344252	     85.28250109	      0.33800324	      1.06090259	      0.39918865	     -6.34905897	     -2.63536086	     16.50270193	      2.24290816	      0.03914613	     24.10090422	    -10.59787670	      0.00000000	     -7.85351805	      1.65513502	      3.53943672	      0.69357619	      0.01210519	     24.22711020	    -14.16805871	      0.00000000	     -0.02653229	     -0.02818087	      0.45891129	     -0.04927312	     -0.03748056	      0.48759325	     -0.04358990	     -0.06851897	      0.48759325	     -0.03032375	     -0.06851897	      0.40154738	     -0.02463788	     -0.05746643	      0.37286543	     -0.01516055	     -0.04365217	      0.34418347	     -0.18951749	     -0.31878765	      2.55232694	      0.00000000	      0.00000000	     26.88308809	      5.67884671	      0.76150696	    142.94157947	    -43.42199489	     70.00648516	     88.65996844	     82.98491543	    -28.92703858	      8.07545363	    126.71108344	    -43.77446870	     44.62391031	     96.44233065	     86.45461496	    -10.09157014	     14.72679212
      1.42372881	      3.21305230	      0.49544384	     85.31474524	      0.33805011	      1.06082568	      0.39896468	     -6.12770375	     -2.66208215	     16.35642954	      2.25333629	      0.03932814	     24.14670263	    -10.25892729	      0.00000000	     -7.68228086	      1.66809469	      3.79322559	      0.70765903	      0.01235098	     23.82831110	    -14.63603123	      0.00000000	     -0.01537516	     -0.03474627	      0.41512895	     -0.02855320	     -0.04621253	      0.44107451	     -0.02525984	     -0.08448207	      0.44107451	     -0.01757227	     -0.08448207	      0.36323783	     -0.01427737	     -0.07085459	      0.33729227	     -0.00878536	     -0.05382197	      0.31134671	     -0.10982321	     -0.39305672	      2.30882267	      0.00000000	      0.00000000	     27.19317335	      5.27505520	      0.34237786	    141.42770054	    -44.16760837	     66.89112972	     89.67060875	     82.66123990	    -26.09614261	      8.61337609	    127.46591481	    -44.26070115	     45.12960524	     96.67924888	     87.16871069	    -10.97898904	     14.73032398
      1.44067797	      3.17830311	      0.40538562	     85.22283560	      0.33819896	      1.06087593	      0.39879312	     -6.02489608	     -2.70417310	     16.84783574	      2.25188789	      0.03930286	     23.98116749	    -10.75797136	      0.00000000	     -7.64369104	      1.71714109	      3.60496176	      0.72710187	      0.01269032	     23.53032098	    -14.57521723	      0.00000000	     -0.01728079	     -0.04612976	      0.45099575	     -0.03209215	     -0.06135258	      0.47918299	     -0.02839061	     -0.11215990	      0.47918299	     -0.01975021	     -0.11215990	      0.39462128	     -0.01604694	     -0.09406781	      0.36643405	     -0.00987424	     -0.07145500	      0.33824681	     -0.12343494	     -0.52182910	      2.50830308	      0.00000000	      0.00000000	     27.34247773	      4.89396347	     -0.42044007	    140.26524599	    -44.83911645	     64.45297287	     90.42130013	     82.64181940	    -24.56511803	      9.36226484	    127.94304788	    -44.10814476	     45.19362315	     96.36156314	     87.84124276	    -11.86470247	     14.84591666
      1.45762712	      3.15445759	      0.37349924	     85.25600475	      0.33814826	      1.06093319	      0.39872630	     -6.00269429	     -2.72436833	     17.21897921	      2.23709250	      0.03904463	     23.80249916	    -11.32564315	      0.00000000	     -7.65968061	      1.74584710	      4.02510140	      0.74281394	      0.01296455	     23.10487456	    -15.06686306	      0.00000000	     -0.02223795	     -0.06073875	      0.50758557	     -0.04129809	     -0.08078254	      0.53930967	     -0.03653472	     -0.14768020	      0.53930967	     -0.02541575	     -0.14768020	      0.44413738	     -0.02065016	     -0.12385846	      0.41241328	     -0.01270676	     -0.09408432	      0.38068918	     -0.15884342	     -0.68708889	      2.82303867	      0.00000000	      0.00000000	     27.38066113	      4.56627393	     -1.60631085	    139.49451401	    -45.43471560	     62.62754924	     90.59379480	     82.83520466	    -23.07531539	      9.19293638	    128.26044285	    -43.49703697	     45.18477100	     95.68803106	     88.32935417	    -13.35504276	     15.17203366
      1.47457627	      3.11294018	      0.39634738	     85.23959281	      0.33821083	      1.06106957	      0.39877084	     -5.99835266	     -2.76324661	     17.27634171	      2.27920284	      0.03977959	     23.78106857	    -11.39645362	      0.00000000	     -7.72107560	      1.80232045	      4.28532290	      0.75697923	      0.01321178	     22.75451886	    -15.33062132	      0.00000000	     -0.03063975	     -0.08053405	      0.59860962	     -0.05690108	     -0.10711029	      0.63602272	     -0.05033805	     -0.19581050	      0.63602272	     -0.03501817	     -0.19581050	      0.52378342	     -0.02845207	     -0.16422504	      0.48637031	     -0.01750755	     -0.12474725	      0.44895721	     -0.21885669	     -0.91101731	      3.32928711	      0.00000000	      0.00000000	     27.36758508	      4.43630700	     -2.87790879	    139.11857985	    -45.92298860	     61.38653954	     90.46160878	     84.22760507	    -22.08537525	      9.23017092	    128.37365967	    -42.68740769	     45.09992332	     94.85792349	     88.61188912	    -15.26694020	     15.17870279
      1.49152542	      3.11111444	      0.48728936	     85.31782939	      0.33806967	      1.06131064	      0.39884030	     -6.06586188	     -2.75664330	     17.11314289	      2.35169676	      0.04104485	     23.80334236	    -11.33207627	      0.00000000	     -7.83895453	      1.81383605	      4.60054961	      0.77168036	      0.01346836	     22.53790573	    -15.43615427	      0.00000000	     -0.04483780	     -0.09319361	      0.67343671	     -0.08326828	     -0.12394749	      0.71552651	     -0.07366403	     -0.22659093	      0.71552651	     -0.05124512	     -0.22659093	      0.58925712	     -0.04163638	     -0.19004040	      0.54716733	     -0.02562032	     -0.14435689	      0.50507753	     -0.32027194	     -1.05422470	      3.74545296	      0.00000000	      0.00000000	     27.31750222	      4.50467073	     -3.82734787	    139.18402933	    -46.22734461	     60.89605676	     89.98968688	     85.63083746	    -21.77695704	      8.70695989	    127.99232560	    -41.85733145	     44.35650625	     94.24674919	     88.80241306	    -16.73126865	     15.34359589
      1.50847458	      3.12286665	      0.46316342	     85.27780353	      0.33812389	      1.06139984	      0.39879304	     -6.01777260	     -2.73435959	     16.98575792	      2.38937697	      0.04170250	     23.82607724	    -11.18687570	      0.00000000	     -7.84379213	      1.81582081	      4.87348694	      0.76882239	      0.01341848	     22.37291719	    -15.69497906	      0.00000000	     -0.03773510	     -0.10395032	      0.75603318	     -0.07007786	     -0.13825393	      0.80328526	     -0.06199500	     -0.25274481	      0.80328526	     -0.04312745	     -0.25274481	      0.66152903	     -0.03504082	     -0.21197550	      0.61427696	     -0.02156184	     -0.16101905	      0.56702489	     -0.26953806	     -1.17590684	      4.20482975	      0.00000000	      0.00000000	     27.32012760	      4.55426831	     -4.88819389	    139.73742763	    -46.56745588	     61.01627046	     89.55503007	     86.86342525	    -21.13901782	      8.38034109	    127.77797510	    -41.37919277	     44.20064171	     93.83646636	     88.91398524	    -19.59283958	     14.13157426
      1.52542373	      3.07468602	      0.46887317	     85.28002593	      0.33822851	      1.06152511	      0.39871246	     -6.00463795	     -2.76777835	     16.96309435	      2.43978303	      0.04258225	     23.84364787	    -11.21512571	      0.00000000	     -7.86351409	      1.86760919	      4.91525937	      0.76000816	      0.01326464	     22.30675226	    -15.65439853	      0.00000000	     -0.03558859	     -0.11782262	      0.73312331	     -0.06609158	     -0.15670409	      0.77894352	     -0.05846850	     -0.28647393	      0.77894352	     -0.04067420	     -0.28647393	      0.64148290	     -0.03304757	     -0.24026390	      0.59566269	     -0.02033532	     -0.18250724	      0.54984248	     -0.25420577	     -1.33283309	      4.07741191	      0.00000000	      0.00000000	     27.35876264	      4.93318624	     -5.19939801	    139.98588800	    -46.50316264	     60.94537936	     89.16846921	     87.12477913	    -21.16696026	      8.27212053	    127.63741971	    -41.65223348	     43.53266907	     94.20496325	     88.95077671	    -20.26046891	     13.91609408
